<?xml version="1.0" standalone="no"?><!DOCTYPE svg PUBLIC "-//W3C//DTD SVG 1.1//EN" "http://www.w3.org/Graphics/SVG/1.1/DTD/svg11.dtd"><svg class="icon" width="200px" height="200.00px" viewBox="0 0 1024 1024" version="1.1" xmlns="http://www.w3.org/2000/svg"><path d="M512.0512 948.2752c-17.5616 0-110.4896-32.1536-197.888-106.8544-81.4592-69.6832-178.5856-194.8672-178.5856-395.5712 0-207.5648 168.8576-376.4736 376.4736-376.4736s376.4736 168.8576 376.4736 376.4736c0 53.7088-8.448 106.0864-25.0368 155.648-5.376 16.0768-22.784 24.7296-38.912 19.3536-16.0768-5.376-24.7296-22.8352-19.3536-38.912 14.4896-43.264 21.8624-89.0368 21.8624-136.1408 0-173.7216-141.312-315.0336-315.0336-315.0336s-315.0336 141.312-315.0336 315.0336c0 139.008 50.5344 254.3616 150.1184 342.8352 69.4272 61.6448 142.7456 90.6752 164.2496 97.2288 22.016-8.2944 109.1584-49.5616 187.0848-131.1744a30.72512 30.72512 0 0 1 43.4176-1.024c12.288 11.7248 12.7488 31.1808 1.024 43.4176-94.6688 99.2256-208.64 151.1936-230.8608 151.1936z" fill="#474747" /><path d="M435.7632 643.2768c-16.9472 0-30.72-13.7728-30.72-30.72V290.9696c0-16.9472 13.7728-30.72 30.72-30.72h111.0016c68.8128 0 124.8256 56.0128 124.8256 124.8256S615.6288 509.952 546.7648 509.952H466.4832v102.6048c0 16.9472-13.7216 30.72-30.72 30.72z m30.72-194.7648h80.2816c34.9696 0 63.3856-28.416 63.3856-63.3856s-28.416-63.3856-63.3856-63.3856H466.4832V448.512zM607.7952 755.456H410.4192c-16.9472 0-30.72-13.7728-30.72-30.72s13.7728-30.72 30.72-30.72h197.376c16.9472 0 30.72 13.7728 30.72 30.72s-13.7728 30.72-30.72 30.72z" fill="#4F95FC" /></svg>