<?xml version="1.0" standalone="no"?><!DOCTYPE svg PUBLIC "-//W3C//DTD SVG 1.1//EN" "http://www.w3.org/Graphics/SVG/1.1/DTD/svg11.dtd"><svg class="icon" width="200px" height="200.00px" viewBox="0 0 1024 1024" version="1.1" xmlns="http://www.w3.org/2000/svg"><path d="M608 726.4H416a32 32 0 0 1 0-64h64V463.04h-16.64a32 32 0 0 1 0-64H512a32 32 0 0 1 32 32V662.4h64a32 32 0 0 1 0 64m-96-430.08a32 32 0 1 1-32 32 32 32 0 0 1 32-32M512 64a448 448 0 1 0 448 448A448 448 0 0 0 512 64" fill="#33A3F4" /></svg>