<?xml version="1.0" standalone="no"?><!DOCTYPE svg PUBLIC "-//W3C//DTD SVG 1.1//EN" "http://www.w3.org/Graphics/SVG/1.1/DTD/svg11.dtd"><svg class="icon" width="200px" height="200.00px" viewBox="0 0 1024 1024" version="1.1" xmlns="http://www.w3.org/2000/svg"><path d="M512 122.88c-225.8944 0-409.6 183.7056-409.6 409.6s183.7056 409.6 409.6 409.6 409.6-183.7056 409.6-409.6S737.8944 122.88 512 122.88zM512 890.88c-197.632 0-358.4-160.768-358.4-358.4s160.768-358.4 358.4-358.4 358.4 160.768 358.4 358.4S709.632 890.88 512 890.88z"  /><path d="M556.032 330.752 390.144 330.752l0 409.6 51.2 0L441.344 586.752l114.688 0c74.752 0 114.3808-54.6816 118.784-132.4032C671.8464 382.464 632.32 330.752 556.032 330.752zM536.2688 535.552 441.344 535.552 441.344 381.952l97.0752 0c54.272 0 81.408 30.6176 81.408 74.6496C619.8272 504.9344 591.9744 535.552 536.2688 535.552z"  /></svg>